<svg id="visual" viewBox="0 0 900 600" width="900" height="600" xmlns="http://www.w3.org/2000/svg" xmlns:xlink="http://www.w3.org/1999/xlink" version="1.1"><rect x="0" y="0" width="900" height="600" fill="#001220"></rect><path d="M0 237L21.5 228.2C43 219.3 86 201.7 128.8 189.2C171.7 176.7 214.3 169.3 257.2 172.2C300 175 343 188 385.8 196.8C428.7 205.7 471.3 210.3 514.2 205.7C557 201 600 187 642.8 186.5C685.7 186 728.3 199 771.2 200.5C814 202 857 192 878.5 187L900 182L900 0L878.5 0C857 0 814 0 771.2 0C728.3 0 685.7 0 642.8 0C600 0 557 0 514.2 0C471.3 0 428.7 0 385.8 0C343 0 300 0 257.2 0C214.3 0 171.7 0 128.8 0C86 0 43 0 21.5 0L0 0Z" fill="#fa7268"></path><path d="M0 155L21.5 158C43 161 86 167 128.8 169.7C171.7 172.3 214.3 171.7 257.2 165.5C300 159.3 343 147.7 385.8 150.7C428.7 153.7 471.3 171.3 514.2 172.8C557 174.3 600 159.7 642.8 154.8C685.7 150 728.3 155 771.2 152.5C814 150 857 140 878.5 135L900 130L900 0L878.5 0C857 0 814 0 771.2 0C728.3 0 685.7 0 642.8 0C600 0 557 0 514.2 0C471.3 0 428.7 0 385.8 0C343 0 300 0 257.2 0C214.3 0 171.7 0 128.8 0C86 0 43 0 21.5 0L0 0Z" fill="#ef5f67"></path><path d="M0 142L21.5 144.8C43 147.7 86 153.3 128.8 156.2C171.7 159 214.3 159 257.2 147C300 135 343 111 385.8 108.2C428.7 105.3 471.3 123.7 514.2 131.2C557 138.7 600 135.3 642.8 132.7C685.7 130 728.3 128 771.2 125.2C814 122.3 857 118.7 878.5 116.8L900 115L900 0L878.5 0C857 0 814 0 771.2 0C728.3 0 685.7 0 642.8 0C600 0 557 0 514.2 0C471.3 0 428.7 0 385.8 0C343 0 300 0 257.2 0C214.3 0 171.7 0 128.8 0C86 0 43 0 21.5 0L0 0Z" fill="#e34c67"></path><path d="M0 89L21.5 87.5C43 86 86 83 128.8 86.2C171.7 89.3 214.3 98.7 257.2 96C300 93.3 343 78.7 385.8 79.3C428.7 80 471.3 96 514.2 94.8C557 93.7 600 75.3 642.8 72.8C685.7 70.3 728.3 83.7 771.2 90.7C814 97.7 857 98.3 878.5 98.7L900 99L900 0L878.5 0C857 0 814 0 771.2 0C728.3 0 685.7 0 642.8 0C600 0 557 0 514.2 0C471.3 0 428.7 0 385.8 0C343 0 300 0 257.2 0C214.3 0 171.7 0 128.8 0C86 0 43 0 21.5 0L0 0Z" fill="#d53867"></path><path d="M0 51L21.5 50.8C43 50.7 86 50.3 128.8 50.5C171.7 50.7 214.3 51.3 257.2 53.7C300 56 343 60 385.8 62C428.7 64 471.3 64 514.2 60.3C557 56.7 600 49.3 642.8 50.8C685.7 52.3 728.3 62.7 771.2 61.3C814 60 857 47 878.5 40.5L900 34L900 0L878.5 0C857 0 814 0 771.2 0C728.3 0 685.7 0 642.8 0C600 0 557 0 514.2 0C471.3 0 428.7 0 385.8 0C343 0 300 0 257.2 0C214.3 0 171.7 0 128.8 0C86 0 43 0 21.5 0L0 0Z" fill="#c62368"></path></svg>