<svg xmlns="http://www.w3.org/2000/svg" version="1.1" xmlns:xlink="http://www.w3.org/1999/xlink" xmlns:svgjs="http://svgjs.dev/svgjs" viewBox="0 0 1422 800" opacity="0.59"><defs><linearGradient x1="50%" y1="0%" x2="50%" y2="100%" id="ssscribble-grad"><stop stop-color="hsl(162, 100%, 58%)" stop-opacity="1" offset="0%"></stop><stop stop-color="hsl(270, 73%, 53%)" stop-opacity="1" offset="100%"></stop></linearGradient></defs><g fill="none" stroke-width="1.75" stroke="url(#ssscribble-grad)" stroke-linecap="round"><path d="M1383.6 329.18C1432.04 352.09 1471.44 371.06 1496.96 386.4 1506.9 402.04 1498.83 414.72 1474.17 425.35 1436.37 437.53 1389.1 449.41 1337.57 462.76 1286.86 480.2 1241.47 501.9 1204.99 529.88 1180.12 564.46 1167.46 606.98 1166.38 657.66 1176.67 712.77 1194.65 772.3 1217.13 832.31 1243.08 886 1267.43 930.4 1287.5 959.71 1303.26 970.83 1311.16 962 1310.66 934.22 1302.79 895.88 1286.65 852.41 1263.4 814.64 1234.17 795.71 1200.06 801.39 1162.73 836.1 1122.53 896.35 1081.4 972.78 1040.56 1050.28 999.38 1110.9 959.78 1141.1 922.26 1132.56 885.58 1089.99 851.23 1024.95 819.18 958.28 788.08 914.88 758.93 909.3 731.52 947.35 704.66 1019.54 679.05 1103.68 654.5 1171.79 630.11 1200.55 606.46 1178.84 583.54 1113.24 560.62 1029.25 538.97 957.58 518.72 923.06 498.63 937.01 480.24 991.51 463.88 1065.22 448.07 1133.97 434.76 1172.04 424.28 1167.36 414.74 1121.64 408.38 1047.56 405.34 966.14 415.28 966.56 401.46 993.85 371.62 902.53 342.08 831.91 305.57 766.48 262.76 712.76 215.62 673.5 165.75 650.88 115.93 642.71 69.59 647.78 29.4 660.51 -1.33 676.19 -23.7 702.5 16.26 725.61 69.27 717.9 107.87 706.91 144.2 690.88 173.15 671.3 188.97 649.76 190.29 626.49 175.81 602.68 145.76 578.36 104.04 554.5 55.6 531.58 6.02 508.66 -36.55 487.23 -66.81 466.9 -82.52 446.07 -80.42 425.35 -61.2 403.66 -27.81 380.01 16.66 353.59 67.22 323 118.82 288.73 166.78 248.8 207.15 202.7 236.87 153.45 254.74 99.55 260.88 43.19 255.17 -10.12 240.81 -59.38 220.76 -99.77 196 -126.93 171.54 -138.42 150.18 -131.96 132.09 -111.02 121.1 -77.07 118.05 -36.49 121.98 -1.33 134.23 22.28 153.85 25.2 179.66 1.5 210.89 -47.92 245.92 -117.7 284.32 -194.89 324.24 -265.75 364.42 -314.47 405.39 -330.19 445.19 -309.32 483.21 -257.48 520.68 -192.86 555.97 -133.7 589 -100.92 621.23 -109.17 651.44 -158.18 679.77 -235.78 707.61 -318.34 733.99 -379.58 759.08 -398.06 784.01 -368.08 807.94 -298.73 830.86 -214.74 853.78 -149.14 875.15 -125.11 894.85 -149.34 914.41 -212.91 932.02 -290.31 947.41 -353.65 962.3 -382.86 974.56 -366.33 983.91 -309.99 992.46 -230.39 997.88 -150.43 1000.12 -91.06 1001.83 -65.72 1000.76 -77.24 997.42 -117.42 993.18 -201.58 990.15 -266 998.58 -210.09 1011.75 -145.26 1030.98 -73.19 1057.09 -4.8 1090.17 53.01 1129.78 93.31 1174.93 114.99 1223.35 118.47 1273.33 108.18 1321.96 89.82 1365.87 65.13 1402.44 42.14 1428.59 24.66 1442.9 11.62 1443.71 7.82 1430.79 12.97 1407.22 24.7 1374.19 43.71 1335.52 67.85 1297.89 96.09 1264.36 126.66 1239.8 157.71 1229.43 190.31 1234.08 221.62 1254.32 250.62 1289.12 279.92 1334.02 306.26 1383.6 329.18Q1383.6 329.18 1383.6 329.18" opacity="0.59"></path><path d="M1342.57 262.52C1388.1 284.01 1425.85 305.66 1451.73 327.74 1464.33 350.27 1461.11 374.09 1442.83 400 1412.04 427.47 1371.19 458.35 1324.4 493.44 1275.82 530.99 1229.35 573.32 1188.46 620.22 1155.91 668.11 1133.16 718.37 1120.63 768.58 1118.83 814 1125.66 853.71 1139.04 883.8 1158.47 901.56 1179.85 905.12 1200.7 893.25 1221 870.06 1236.91 836.72 1247.19 798.94 1251.96 756.41 1219.75 784.72 1185.85 869.08 1157.69 941.03 1126.49 1011.32 1093.46 1066.29 1058.45 1094.73 1023.03 1090.81 988.03 1055.09 952.49 999.17 918.13 936.37 885.37 885.23 852.71 863.73 821.83 879 792.86 930.16 764.08 1004.62 737.12 1082.02 712.01 1139.32 686.97 1159.23 663.66 1134.51 642.17 1071.92 620.68 993.13 601.53 923.54 584.72 884.51 567.97 887.44 553.7 928.83 541.95 993.68 525.93 1088.75 507.02 1086.23 503.42 987.46 501.18 911.65 500.29 849.44 500.02 812.13 497.77 804.99 494.71 825.33 489.76 864.39 480.82 913.66 468.29 958.59 451.18 989.34 428.56 1001.54 400.5 990.61 366.84 958.91 328.4 910.22 285.67 851.21 240 789.11 193.77 727.79 148.47 674.03 106.66 630.57 39.48 574.73 82.68 578.17 135.38 584.21 208.45 577.53 163.07 524.65 97.57 494.05 50.99 472.56 10.27 448.32 -20.09 421.29 -38.23 393.98 -40.93 363.39 -28.27 329.31 -2.34 294.54 34.94 256 79.77 213.99 128.08 172 175.95 127.77 219.66 82.96 256.24 41.52 283.74 3.2 301.3 -28.95 306.97 -58.74 269.64 -44.27 239.46 -2.81 209.9 43.29 179.26 74.16 183 28.64 193 -27.47 209.02 -96.32 230.07 -167.96 255.3 -229.4 284.01 -270.57 315.04 -282.59 348.36 -264.45 382.54 -219.74 416.69 -159.68 451.65 -103.07 485.72 -64.24 518.42 -56.91 551.18 -86.88 582.28 -148.14 611.51 -226.01 640.63 -299.14 667.91 -346.86 693.25 -354.04 718.54 -319.26 741.98 -251.85 763.47 -173.06 784.96 -110.47 803.98 -83.58 820.54 -99.23 837.05 -152.28 851.02 -223.36 862.42 -289.53 873.72 -332.39 882.42 -337.4 888.64 -303.78 894.93 -240.52 899.02 -163.72 901.29 -92.05 905.45 -29.87 915.5 -88.96 926.16 -163.28 938.22 -203.59 954.19 -223.01 974.93 -217.98 1001 -189.54 1032.39 -141.45 1069 -81.4 1109.7 -15.45 1153.94 47.39 1200.16 101.32 1245.85 143.93 1289.5 172.36 1328.5 187.71 1382.38 170.63 1321.92 123.87 1268.79 123.22 1222.58 131.58 1191.57 172.41 1218.47 200.44 1253.09 220.22 1295.99 241.03 1342.57 262.52Q1342.57 262.52 1342.57 262.52" opacity="0.46"></path><path d="M1300.64 350.99C1343.31 371.05 1379.41 394.43 1405.53 421.01 1420.54 447.7 1421.89 477.76 1409.8 511.03 1386.12 544.37 1352.3 580.65 1311.44 619.17 1266.8 656.61 1221.56 694.68 1178.87 731.65 1141.28 764.45 1110.73 792.94 1088.29 814.63 1072.41 830.34 1088.41 799.17 1111.44 757.94 1138.85 716.96 1180.3 694.7 1188.3 737.48 1188.17 788.72 1182.72 852 1172.4 919.52 1158.35 980.52 1140.27 1026.43 1119.02 1048.66 1095.13 1044.01 1069.23 1012.96 1042.14 961.95 1013.62 905.13 984.84 854.4 956.42 823.83 927.41 824.27 899.29 856.95 872.44 916.56 845.42 989.57 819.91 1058.39 796.12 1104.82 772.31 1116.67 750.29 1089.62 730.23 1030.26 710.18 956.71 692.56 889.71 677.31 847.32 662.04 840.44 649.06 868.75 638.26 922.49 622.77 1017.05 599.5 1072.84 589.84 1005.8 582.17 937.15 574.18 867.14 565.14 808.36 553.46 769.51 539.57 755.37 522.72 764.56 502.13 793.86 477.73 833.78 449.16 875.12 416.81 912.45 380.58 936.56 341.03 944.02 299.7 934.83 257.09 908.87 214.79 869.88 174.96 820.69 138.86 766.72 108.55 712.51 85.46 659.26 71.07 611.58 66.54 570.85 71.09 536.28 85.3 509.07 108.19 488.02 136.17 472.4 168.35 460.65 201.68 450.99 243.35 440.69 272.13 416.68 249.53 398.79 219.45 386 181.31 369.69 138.64 349.64 95.1 329.58 56.52 306.26 26.61 279.99 6.85 253.9 0.32 225.25 7.28 194.76 26.27 165.23 56.32 135.01 94.61 105.45 137.99 78.73 183.38 54.86 227.52 35.72 267.74 22.01 301.81 15.32 328.3 16.97 346.1 24.77 355.5 40.47 357.32 62.81 351.46 86.12 340.52 110.23 326.36 130.73 308.92 141.03 291.64 139.46 276.12 122.38 261.64 88.63 251.17 39.49 245.32 -21.5 242.86 -86.52 245.56 -148.77 253.13 -198.96 264.34 -229.03 279.76 -234.34 298.59 -213.39 320.15 -172.5 344.05 -118.84 369.46 -64.89 396.43 -26.24 423.97 -11.88 451.44 -28.48 479.61 -75.06 507.11 -142.49 533.53 -215.85 560.17 -277.35 585.45 -311.57 609.09 -308.67 632.77 -270.26 654.73 -205.31 674.79 -131.76 694.84 -72.38 712.52 -43.29 727.9 -51.15 743.32 -93.6 756.53 -156.52 767.71 -221.79 779.12 -273.67 788.77 -296.79 796.98 -285.91 805.9 -244.04 813.98 -180.25 821.76 -108.73 831.11 -43.02 841.1 4.38 852.47 26.92 866.57 22.58 883.12 -3.89 902.82 -44 926.16 -90.64 953.3 -131.59 984.46 -159.16 1019.01 -170.29 1057.02 -161.19 1097.78 -133.78 1139.59 -91.05 1181.9 -38.22 1223.02 18.8 1260.85 77 1294.13 130.32 1320.87 175.96 1339.94 213.6 1349.97 241.5 1350.06 260.76 1341.45 271.99 1323.72 277.4 1298.21 279.35 1268.77 277.14 1236.44 274.68 1204.37 273.63 1167.16 271.93 1152.67 285.62 1182.61 302.2 1216.49 314.68 1257.1 330.94 1300.64 350.99Q1300.64 350.99 1300.64 350.99" opacity="0.99"></path><path d="M1259.18 494.9C1298.93 513.52 1333.14 534.44 1359.04 557.31 1375.77 579.93 1380.87 603.97 1374.27 628.68 1357.26 652.26 1330.51 675.3 1296.25 696.58 1256.98 715.12 1215.12 730.1 1173.32 740.12 1133.8 745.71 1098.55 744.98 1069.01 737.31 1046.29 725.61 1030.6 708.14 1021.68 686.45 1021.58 655.89 1049.54 628.32 1069.83 650.24 1084.25 683.5 1096.7 729.86 1106.35 786.44 1114.42 846.82 1118.69 905.79 1119.06 955.76 1116.92 989.6 1110.92 1002.83 1101.47 992.75 1089.71 962.72 1075.12 916.84 1058.31 863.97 1039.88 817.27 1019.98 785.34 999.19 777.06 977.51 797.04 955.54 842.54 933.73 905.87 911.55 974.17 889.92 1033.09 869.14 1068.89 848.28 1073.51 828.45 1044.78 809.82 988.78 791.2 920.51 774.23 856.61 758.82 812.06 743.33 796.81 729.22 812.63 716.28 853.92 702.96 911.66 690.44 970.36 678.33 1016.67 665.34 1042.17 652.16 1039.96 638.31 1011.07 622.85 960.81 605.97 898.03 587.16 833.36 566.03 775.56 542.35 732.97 515.79 709.49 486.71 706.46 454.72 721.05 420.01 747.96 383.71 783.62 345.69 819.44 306.86 849.74 268.88 872.65 232.2 882.98 198.33 880.13 168.75 865.26 144.49 839.04 126.96 804.4 116.49 762.74 114.13 717.79 120.24 672.36 133.17 626.16 153.24 582.83 179.12 543.38 207.26 506.18 237 473.41 265.76 444.67 289.51 418.27 307.37 394.93 317.19 373.83 316.61 354 306.02 335.26 285.61 316.97 256.03 299.01 219.93 280.84 180.18 262.22 139.69 243.59 103.31 224.97 74.08 206.64 48.18 180.16 68.8 136.77 111.35 123.8 148.54 118.75 189.52 118.44 231.6 123.37 272.52 130.54 310.11 142.4 342.72 158.03 393.14 193.41 387.43 152.05 369.09 86.79 355.11 32.09 342.47 -26.97 332.11 -84.62 319.91 -151.19 316.79 -168.87 326.05 -115.42 335.59 -67.35 348.11 -19.75 363.04 16.86 379.59 32.11 397.84 22.2 417.24 -13.78 437.57 -70.6 458.43 -138.19 479.37 -203.12 500.71 -251.6 521.72 -272.92 542.1 -261.37 562.57 -220.51 582.2 -158.51 600.82 -90.24 619.44 -34.22 636.61 -3.59 652.42 -4.51 668.32 -36.61 683.05 -90.05 696.83 -151.17 717.83 -225.62 759.9 -212.61 783.03 -130.23 800.38 -63.71 819.33 -2.65 840.36 43.98 863.61 70.67 889.45 75.49 918.09 61.05 948.97 30.47 982.53 -7.76 1018.45 -46.15 1055.46 -80.74 1093.67 -103.85 1132.06 -112.72 1168.97 -107.45 1203.89 -87.44 1235.31 -55.47 1261.93 -13.68 1282.69 33.79 1296.34 83.17 1302.86 133.57 1301.28 180.72 1291.5 223 1275.5 261.24 1253.08 293.45 1225.81 320.12 1197.38 342.38 1168.53 360.47 1141.84 375.72 1114.25 393.95 1115.19 427.48 1147.51 446.99 1180.42 460.39 1218.69 476.28 1259.18 494.9Q1259.18 494.9 1259.18 494.9" opacity="0.18"></path><path d="M1217.71 531.19C1254.5 548.38 1286.69 564.34 1312.02 578.86 1329.95 593.11 1338.16 605.42 1336.37 615.27 1306.14 632.26 1245.5 635.12 1170.07 621.35 1094.6 604.39 1031.99 579.02 989.56 559.31 970.55 566.91 970.43 608.5 981.77 690.8 1013.16 845.28 1041.26 900.88 1025.46 772.17 1006.58 733.81 980.19 780.76 949.21 896.31 933.15 957.24 916.51 1005.5 899.54 1031.21 882.48 1029.55 865.29 999.76 848.1 947.29 830.91 884.32 814.13 823.99 797.71 778.42 781.19 756.36 764.84 760.78 748.48 789.12 714.62 892.16 678.48 981.54 637.77 994.92 592.26 924.64 539.1 808.75 477.89 706.8 413.05 656.9 344.19 667.85 277.5 714.6 200.77 793.18 186.18 756.69 252.34 663.58 302.57 590.03 343.64 522.44 360.61 465.64 355.76 437.61 342.49 412.34 321.17 389.85 292.43 367.48 258.5 347.67 221.71 330.48 184.27 313.29 150.23 299.13 122 288.01 100.35 277.02 87.89 269.3 85.23 264.91 106.94 256.88 161.52 261.93 234.52 275.89 311.39 281.83 378.59 280.41 427.39 256.6 453.66 201.75 460.21 115.55 453.62 10.32 425.78 -107.33 394.21 -10.4 405.95 77.2 421.72 38.62 445.53 -70.32 474.69 -186.63 489.84 -221.6 505.78 -231.08 522.27 -212.42 538.87 -170.25 555.82 -111.66 573.01 -48.69 590.2 3.77 607.22 35.3 624.11 40.36 641.1 18.05 658.15 -25.14 675.42 -79.44 711.09 -181.72 749.82 -209.1 793.63 -145.54 841.87 -28.88 897.7 76.44 960.9 124.78 1026.38 105.37 1094.26 45.76 1157.9 -13.46 1209.55 -50.7 1243.76 -42.94 1253.29 2.45 1240.28 75.14 1203.92 157.13 1152.25 233.66 1104.45 307.02 1069.44 366.7 1060.99 414.54 1070.28 437.11 1087.81 457.8 1112.86 477.03 1144.48 495.99 1180.27 514 1217.71 531.19Q1217.71 531.19 1217.71 531.19" opacity="0.30"></path><path d="M1176.58 418.99C1262.91 459.96 1254.31 482.93 1166.46 475.7 1095.61 479.38 1029.15 493.07 975.26 528.02 938.15 587.57 917.98 671.45 911.2 768.02 922.8 875.33 951.33 798.7 949.86 696.75 944.08 699.59 930.25 773.2 909.49 886.47 887.73 975.75 860.72 986 829.21 905.96 797.7 792.14 763.17 719.72 725.49 729.49 686.82 811.21 643.31 905.02 594.48 953.37 543.6 932.63 487.17 849.68 427.16 744.6 369.07 653.61 313.21 605.64 265.62 601.91 231.08 634.87 213.89 678.94 218.19 713.91 239.26 737.54 277.45 736.57 325.21 715.67 366.52 681.44 395.45 638.58 401.63 595.28 377.7 549.2 328.51 508.87 263.58 477.36 196.42 445.84 147.66 424.63 127.91 411.28 137.82 395.14 177.87 380.67 238.28 360.3 308.31 326.58 377.1 275.66 435.56 203.47 478.89 119.92 505.52 30.61 518.05 -43.65 516.74 -81.24 509.52 -70.64 501.86 -12.48 491.1 59.79 486.18 114.48 488.92 112.13 493.15 40.69 505.42 -71.04 524.96 -164.92 545.38 -186.88 571.65 -120.87 603.16 -7.06 634.67 73 669.95 69.16 708.96 -7.94 748.85 -109.05 793.91 -164.74 844.3 -144.49 896.17 -59.78 953 49.13 1012.33 136.18 1068.55 175.55 1121.03 163.98 1163.64 122.45 1197.78 47.86 1146.73 50.29 1079.53 120.33 1042.23 181.12 1020.11 240.55 1022.36 292.49 1054.28 344.85 1109.42 387.47 1176.58 418.99Q1176.58 418.99 1176.58 418.99" opacity="0.88"></path><path d="M1135.08 285.11C1194.64 313.76 1236.5 336.09 1253.4 354.44 1245.69 375.67 1212.47 398.7 1160.95 429.45 1099.07 470.76 1034.98 526.9 976.37 598.88 927.33 676.17 890.85 754.81 866.45 818.07 854.22 849.93 849.59 841.54 848.45 792.01 853.63 695.72 846.19 727.3 826.92 874.47 811.54 942.81 789.54 940.43 760.9 864.46 732.25 760.27 698.29 685.36 659.64 675.69 620.75 732.74 576.9 818.48 529.15 886.74 481.96 909.75 432.68 873.28 384.39 795.13 341.38 699.35 304.87 615.77 279.55 561.18 266.4 539.92 268.92 546.52 288.12 566.98 316.9 597.86 355.3 621.77 396.17 632.87 426.69 638.27 443.61 630.17 440.26 612.09 412.31 591.14 364.64 565.17 305.08 536.52 243.67 507.87 196.8 477.9 172.97 444.82 172.94 408.87 199.27 364.85 245.81 309.8 305.04 249.05 369.16 177.96 430.04 102.92 483.24 38.31 524.86 -9.41 554.54 -25.7 572.15 -8.67 581.32 40.93 585.93 106.89 584.57 155.2 584.18 165.98 587.53 121.99 589.82 32.74 598.06 -69.3 612.99 -137.42 628.03 -138.82 649.79 -69.74 678.44 34.43 707.09 110.43 741.27 118.63 780.26 61.36 819.36 -30.54 863.25 -102.66 910.6 -120.36 956.91 -78.24 1004.47 7.84 1049.99 103.76 1125.5 195.51 1068.03 102.52 1010.59 106.38 985.04 125.28 975.02 154.37 986.1 187.17 1020.99 222.85 1073.67 256.46 1135.08 285.11Q1135.08 285.11 1135.08 285.11" opacity="0.09"></path><path d="M1093.6 281.23C1147.64 307.01 1187.79 337.44 1208.33 373.3 1209.53 411 1188.96 457.04 1151.01 512.15 1101.12 569.41 1044.65 632.98 988.02 696.4 934.62 748.42 888.47 784.41 851.09 793.76 822.58 776.53 801.91 732.34 786.81 672.54 777.72 623.21 770.23 599.11 761.85 617.94 755.6 681.41 745.87 772.44 731.38 859.02 717.23 906.82 697.5 894.12 671.72 822.97 645.93 728.75 615.31 653.97 580.83 628.55 546.7 660.34 509.52 728.5 471.09 800.54 434.78 852.63 399.81 861.08 369.15 826.26 344.52 758.63 328.17 676.66 322.89 599.38 326.47 535.36 342.05 493.8 368.6 472.37 398.38 468.7 431.72 474.1 462.71 480.41 481.77 490.94 487.66 494.56 476.51 488.78 446.02 482.75 400.64 466.98 346.6 441.19 291.05 415.41 246.76 380.84 220.34 338.23 212.28 295.39 226.24 244.86 258.75 189.65 304.72 138.66 359.32 90.79 416.04 54.72 471.29 36.41 520.6 40.95 561.84 71.17 594.86 114.65 619.9 166.05 638.86 206.83 651.63 214.8 662.03 183.25 672.54 112.26 680.65 21.33 691.59 -61.5 706.79 -103.26 721.55 -87.81 741.55 -18.27 767.34 75.93 793.12 147.1 823.47 165.05 857.33 127.21 890.76 50.58 926.72 -25.76 963.3 -70.34 997.48 -70.29 1029.54 -23.06 1056.51 53.11 1077.3 139.76 1089.28 214.52 1090.06 265.54 1082.61 289.99 1063.88 291.03 1035.47 278.75 1005.6 255.07 974.13 233.96 947.06 221.38 933.44 210.96 934.15 211.83 952.16 222.75 988.53 235.52 1038.03 255.44 1093.58 281.22Q1093.6 281.23 1093.6 281.23" opacity="0.63"></path><path d="M1051.73 411.56C1100.16 434.48 1137.95 465.46 1160.79 503.21 1169.1 540.43 1159.72 582.88 1135 627.11 1098.64 666.31 1053.51 700.58 1004.43 723.3 953.94 731.81 905.81 721.79 862.45 691.89 823.8 652.68 791.16 606.62 763.96 567.05 741.51 551.64 722.45 566.18 705.16 614.98 690.26 689.31 674.87 772.17 657.71 838.65 641.16 867.47 621.66 846.9 598.74 781.3 575.82 697.31 550.56 625.14 523.9 588.23 497.82 596.7 471.52 641.73 446.7 703.59 414.93 785.75 384.46 764.56 392.93 676.02 406.25 605.66 427.21 540.84 453.84 487.35 479.05 443.99 503.62 413.14 523.18 391.21 531.1 376.35 527.44 364.12 510.28 350.56 478.6 338.65 436.16 321.99 387.73 299.07 338.15 276.15 297.18 248.06 269.71 216.74 255.77 187.07 259.4 157.61 278.92 132.75 310.87 114.96 352.95 108.06 400.42 116.1 450.64 134.26 499.75 166.17 544.97 206.5 586.31 240.09 621.97 262.73 652.16 262.26 677.81 231 699.71 171.04 719.32 91.78 736.49 13.13 753.6 -44.95 771.87 -62.28 789.51 -34.23 809.56 33.28 832.48 117.26 855.4 182.88 880.11 208.12 905.69 188.16 930.64 130.52 955.23 60.7 977.78 3.18 997.88 -28.82 1013.73 -22.82 1023.4 16.44 1028.54 79.88 1025.79 153.11 1014.49 222.37 999.31 282.31 977.38 325.23 951.02 352.05 916.65 366.39 892.72 363.76 920.22 369.39 956.53 374.87 1002.15 388.64 1051.73 411.56Q1051.73 411.56 1051.73 411.56" opacity="0.20"></path><path d="M1010.6 528.95C1053.24 549.01 1087.85 571.09 1111.36 593.66 1124.52 614.76 1124 633.49 1110.9 646.67 1087.8 654.61 1055.66 652.97 1017.74 639.63 975.87 620.19 932.82 590.93 891.03 556.16 850.35 527.55 812.98 506.88 779.55 503.01 748.69 522.85 721.3 566.18 696.83 629.39 674.1 700.89 652.94 767.67 632.68 812.84 612.94 825.24 593.13 799.33 573.08 739.97 553.03 666.42 533.67 599.08 515.59 555.2 498.03 544.4 482.71 565.07 470.69 607.37 460.39 662.73 454.76 713.06 454.71 747.38 457.23 763.38 465.8 755.6 480.21 728.27 495.71 685.61 514.98 634.33 535.97 581.58 553.01 527.32 567.16 478.51 575.56 436.92 573.96 398.33 563.07 366.22 542.17 339.39 510.91 313.86 472.24 291.35 429.6 271.3 386.04 251.24 348.86 234.59 321.52 222.3 301.24 209.12 339.61 225.49 388.86 256.74 428.83 278.59 471.04 301.07 512.88 317.45 554.41 318.49 593.18 302.49 628.31 265.6 661.25 210.4 690.71 142.09 717.01 72.03 741.69 15.03 764.43 -17.05 785.78 -13.98 806.62 22.14 827.01 85.42 847.07 158.97 867.12 218.33 885.89 248.31 902.87 243.65 919.34 206.21 933.09 150.84 943.16 94.04 953.4 32.86 943.95 68.21 923.72 145.33 908.16 206.38 889.73 264.43 870.64 314.79 856.43 359.04 846.11 393.7 842.39 420.52 848.97 442.09 865.01 459.84 890.71 476.57 925.78 491.81 967.03 508.89 1010.58 528.94Q1010.6 528.95 1010.6 528.95" opacity="0.86"></path><path d="M968.82 500.12C1058.41 541.11 1020.35 500.1 925.58 449.53 854.23 463.11 788.55 533.23 734.12 650.67 682.64 755 639.47 781.68 605.1 698.34 559.55 540.1 541.14 643.11 573.44 706.91 594.86 685.7 614.97 624.56 619.49 556.68 593.75 481.93 541.01 423.23 470.82 388.85 375.39 351.07 391.16 374.88 479.82 354.77 550.12 283.84 616.58 171.51 672.38 63.31 725.86 20.88 770.36 77.27 804.74 200.34 839.12 283.68 860.12 270.93 866.22 191.81 870 99.56 857.2 65.91 831.95 97.39 813.68 174.31 799.49 265.39 803.07 341.65 836.78 413.46 896.05 465.74 968.82 500.12Q968.82 500.12 968.82 500.12" opacity="0.90"></path><path d="M927.58 358.1C1006.19 390.37 1011.75 389.06 951.45 418.57 898.81 478.38 845.02 569.81 797.4 668.2 749.63 733.19 709.81 732.93 681.16 656.96 641.75 521 665.56 641.15 654.39 618.22 621.86 584.48 572.14 547.77 512.58 519.12 451.17 490.47 408.21 472.6 390.39 456.68 392.41 429.77 418.08 385.46 458.04 314.19 507.36 227.57 559.47 135.3 606.52 74.93 654.23 72.59 694.23 137.77 722.88 241.96 751.52 317.93 766.11 329.81 768.05 285.81 766.95 177.91 751.44 155.52 772.78 225.24 811.59 282.12 866.17 329.45 927.58 358.1Q927.58 358.1 927.58 358.1" opacity="0.36"></path><path d="M886.1 263.36C934.5 286.28 969.04 306.76 986.4 329.69 991.7 359.54 980.4 403.03 957.61 463.96 927.5 533.57 892.62 609.73 858.87 671.16 823.64 699.35 792.77 681.07 769.86 615.47 746.94 531.48 734.14 458.32 729.65 417.46 723.68 414.71 722.78 439.16 722.85 471.89 715.6 512.02 702.59 538.03 680.5 545.42 646.33 548.67 602.5 537.39 554.1 514.47 504.5 491.55 466.74 459.16 445.02 416.2 434.44 369.09 440.61 307.3 459.14 237.14 485.27 174.36 517.31 125.6 549.35 111.55 583.12 135.61 613.29 199.48 636.21 283.47 665.88 362.85 688.12 294.7 693.89 229.21 705.4 198.32 723.55 190.6 750.93 200.47 789.45 217.26 836.5 240.44 886.1 263.36Q886.1 263.36 886.1 263.36" opacity="0.60"></path><path d="M844.6 323.22C914.74 357.6 944.9 436.29 936.23 541.22 910.2 627.03 868.32 657.31 833.94 573.97 799.56 450.9 779.19 374.48 760.16 363.28 723.77 396.92 665.74 414.65 595.6 380.28 516.01 241.77 627.35 407.1 664.96 365.15 707.43 305.28 771.81 288.84 844.6 323.22Q844.6 323.22 844.6 323.22" opacity="0.43"></path><path d="M803.1 469.96C865.59 516.93 877.25 604.86 846.58 532.47 823.66 448.48 797.66 373.41 768.24 329.11 732.27 305.87 685.49 291.31 637.1 268.4 587.5 245.48 556.3 218.53 547.22 211.73 544.09 225.99 557.05 282.48 579.97 366.47 602.89 432.06 631.43 464.25 664.6 469.36 703.72 453.66 753.5 447.04 803.1 469.96Q803.1 469.96 803.1 469.96" opacity="0.89"></path></g></svg>